<?xml version="1.0" encoding="UTF-8"?>
<svg xmlns="http://www.w3.org/2000/svg" xmlns:xlink="http://www.w3.org/1999/xlink" viewBox="0 0 30 30" width="30px" height="30px">
<g id="surface12452381">
<path style=" stroke:none;fill-rule:nonzero;fill:rgb(0%,54.509807%,54.509807%);fill-opacity:1;" d="M 14 2.800781 C 7.816406 2.800781 2.800781 7.816406 2.800781 14 C 2.800781 19.25 6.414062 23.640625 11.285156 24.855469 C 11.234375 24.703125 11.199219 24.527344 11.199219 24.308594 L 11.199219 22.394531 C 10.746094 22.394531 9.984375 22.394531 9.792969 22.394531 C 9.027344 22.394531 8.34375 22.066406 8.015625 21.453125 C 7.648438 20.773438 7.585938 19.734375 6.675781 19.097656 C 6.40625 18.886719 6.609375 18.644531 6.921875 18.675781 C 7.496094 18.839844 7.972656 19.230469 8.417969 19.816406 C 8.867188 20.402344 9.074219 20.535156 9.910156 20.535156 C 10.3125 20.535156 10.917969 20.511719 11.488281 20.421875 C 11.792969 19.644531 12.324219 18.929688 12.96875 18.589844 C 9.238281 18.207031 7.460938 16.351562 7.460938 13.832031 C 7.460938 12.746094 7.921875 11.699219 8.707031 10.816406 C 8.449219 9.9375 8.125 8.148438 8.804688 7.464844 C 10.484375 7.464844 11.5 8.554688 11.742188 8.847656 C 12.578125 8.5625 13.496094 8.398438 14.460938 8.398438 C 15.429688 8.398438 16.351562 8.5625 17.1875 8.851562 C 17.429688 8.558594 18.445312 7.464844 20.128906 7.464844 C 20.808594 8.148438 20.484375 9.945312 20.222656 10.820312 C 21.003906 11.703125 21.460938 12.75 21.460938 13.832031 C 21.460938 16.347656 19.683594 18.203125 15.960938 18.589844 C 16.984375 19.125 17.734375 20.625 17.734375 21.757812 L 17.734375 24.308594 C 17.734375 24.40625 17.710938 24.476562 17.699219 24.5625 C 22.066406 23.03125 25.199219 18.886719 25.199219 14 C 25.199219 7.816406 20.183594 2.800781 14 2.800781 Z M 14 2.800781 "/>
</g>
</svg>
