<?xml version="1.0" encoding="UTF-8"?>
<svg xmlns="http://www.w3.org/2000/svg" xmlns:xlink="http://www.w3.org/1999/xlink" viewBox="0 0 28 28" width="28px" height="28px">
<g id="surface12436477">
<path style=" stroke:none;fill-rule:nonzero;fill:rgb(0%,54.509807%,54.509807%);fill-opacity:1;" d="M 14 2.800781 C 7.816406 2.800781 2.800781 7.816406 2.800781 14 C 2.800781 20.183594 7.816406 25.199219 14 25.199219 C 20.183594 25.199219 25.199219 20.183594 25.199219 14 C 25.199219 7.816406 20.183594 2.800781 14 2.800781 Z M 19.9375 17.703125 L 18.195312 17.726562 C 18.195312 17.726562 17.816406 17.800781 17.324219 17.460938 C 16.671875 17.011719 16.058594 15.847656 15.578125 16 C 15.09375 16.152344 15.105469 17.203125 15.105469 17.203125 C 15.105469 17.203125 15.109375 17.386719 15 17.507812 C 14.878906 17.636719 14.644531 17.625 14.644531 17.625 L 13.863281 17.625 C 13.863281 17.625 12.140625 17.765625 10.621094 16.183594 C 8.964844 14.457031 7.503906 11.050781 7.503906 11.050781 C 7.503906 11.050781 7.417969 10.835938 7.511719 10.726562 C 7.613281 10.605469 7.894531 10.601562 7.894531 10.601562 L 9.761719 10.59375 C 9.761719 10.59375 9.933594 10.625 10.0625 10.71875 C 10.164062 10.792969 10.226562 10.9375 10.226562 10.9375 C 10.226562 10.9375 10.527344 11.703125 10.925781 12.394531 C 11.707031 13.746094 12.070312 14.039062 12.335938 13.894531 C 12.71875 13.683594 12.605469 11.988281 12.605469 11.988281 C 12.605469 11.988281 12.613281 11.371094 12.410156 11.097656 C 12.253906 10.882812 11.957031 10.820312 11.828125 10.804688 C 11.722656 10.789062 11.894531 10.546875 12.121094 10.4375 C 12.457031 10.269531 13.050781 10.261719 13.75 10.269531 C 14.296875 10.273438 14.453125 10.308594 14.667969 10.359375 C 15.3125 10.515625 15.09375 11.117188 15.09375 12.558594 C 15.09375 13.019531 15.011719 13.671875 15.34375 13.882812 C 15.484375 13.976562 15.835938 13.898438 16.707031 12.410156 C 17.125 11.703125 17.433594 10.875 17.433594 10.875 C 17.433594 10.875 17.503906 10.730469 17.609375 10.664062 C 17.714844 10.601562 17.863281 10.621094 17.863281 10.621094 L 19.828125 10.609375 C 19.828125 10.609375 20.417969 10.539062 20.511719 10.804688 C 20.613281 11.085938 20.292969 11.738281 19.488281 12.808594 C 18.171875 14.570312 18.027344 14.40625 19.121094 15.421875 C 20.164062 16.394531 20.382812 16.867188 20.417969 16.925781 C 20.851562 17.644531 19.9375 17.703125 19.9375 17.703125 Z M 19.9375 17.703125 "/>
</g>
</svg>
